<svg xmlns="http://www.w3.org/2000/svg" viewBox="0 0 1024 1024">
  <defs>
    <linearGradient id="track" x1="0" y1="1" x2="1" y2="0">
      <stop offset="0" stop-color="#40d8ca"/>
      <stop offset="1" stop-color="#5c9cff"/>
    </linearGradient>
    <radialGradient id="lens" cx="42%" cy="34%" r="70%">
      <stop offset="0" stop-color="#263f63"/>
      <stop offset="1" stop-color="#111a2b"/>
    </radialGradient>
  </defs>
  <path d="M210 408c54-107 169-178 302-178 128 0 239 65 296 166" fill="none" stroke="url(#track)" stroke-width="42" stroke-linecap="round"/>
  <path d="M818 616c-55 108-169 178-302 178-128 0-239-65-296-166" fill="none" stroke="#40d8ca" stroke-opacity=".9" stroke-width="28" stroke-linecap="round"/>
  <path d="M272 512c67-100 148-150 240-150s173 50 240 150c-67 100-148 150-240 150S339 612 272 512Z" fill="url(#lens)" stroke="#d9f2ff" stroke-width="30" stroke-linejoin="round"/>
  <circle cx="512" cy="512" r="94" fill="none" stroke="url(#track)" stroke-width="30"/>
  <circle cx="512" cy="512" r="40" fill="#f5fbff"/>
  <circle cx="692" cy="362" r="25" fill="#ff8d73"/>
  <circle cx="332" cy="665" r="18" fill="#ff8d73"/>
</svg>
